<svg width="239" height="154" viewBox="0 0 239 154" fill="none" xmlns="http://www.w3.org/2000/svg">
<path fill-rule="evenodd" clip-rule="evenodd" d="M188.895 1.22323C191.399 0.0604587 194.372 1.14829 195.535 3.65297L214.484 44.4691C215.646 46.9738 214.559 49.9468 212.054 51.1096C209.549 52.2724 206.576 51.1845 205.413 48.6799L191.318 18.3182C180.512 42.6035 166.947 56.5807 153.585 64.3667C149.857 66.5385 146.182 68.2076 142.632 69.4802C141.877 83.8564 129.798 95.0982 115.319 94.7273C100.596 94.3501 88.967 82.1092 89.3442 67.3864C89.7214 52.6637 101.962 41.0343 116.685 41.4115C128.106 41.704 137.665 49.1354 141.202 59.3263C143.603 58.3614 146.062 57.176 148.55 55.7264C159.559 49.312 171.57 37.4652 181.548 15.6587L152.289 29.242C149.785 30.4047 146.812 29.3169 145.649 26.8122C144.486 24.3076 145.574 21.3345 148.079 20.1717L188.895 1.22323Z" fill="url(#paint0_linear_327_25)"/>
<path fill-rule="evenodd" clip-rule="evenodd" d="M66.6774 145.981C64.3454 147.46 61.2561 146.768 59.7772 144.436L35.678 106.433C34.1991 104.101 34.8908 101.012 37.2228 99.5328C39.5549 98.054 42.6442 98.7457 44.1231 101.078L61.9277 129.155C69.5353 100.496 78.9607 83.8473 88.4066 74.3711C88.8669 73.9093 89.3268 73.465 89.7859 73.0378C89.4456 71.2211 89.2902 69.3412 89.3395 67.4191C89.7166 52.6963 101.958 41.0669 116.68 41.4441C131.403 41.8213 143.032 54.0622 142.655 68.7849C142.278 83.5077 130.037 95.1371 115.314 94.7599C106.386 94.5312 98.5951 89.9393 93.9298 83.0768C86.6599 91.1385 78.6396 105.523 71.8175 130.88L99.325 113.437C101.657 111.958 104.746 112.649 106.225 114.981C107.704 117.313 107.012 120.403 104.68 121.882L66.6774 145.981Z" fill="url(#paint1_linear_327_25)"/>
<path d="M115.752 85.0783C113.576 85.0783 111.507 84.6517 109.544 83.7983C107.581 82.945 105.853 81.7717 104.36 80.2783C102.867 78.785 101.693 77.057 100.84 75.0943C99.9867 73.1317 99.5601 71.0623 99.5601 68.8863C99.5601 66.6677 99.9867 64.5557 100.84 62.5503C101.693 60.545 102.867 58.7957 104.36 57.3023C105.853 55.809 107.581 54.657 109.544 53.8463C111.507 52.993 113.576 52.5663 115.752 52.5663C117.971 52.5663 120.083 52.993 122.088 53.8463C124.093 54.657 125.843 55.809 127.336 57.3023C128.829 58.7957 129.981 60.545 130.792 62.5503C131.645 64.5557 132.072 66.6677 132.072 68.8863C132.072 71.0623 131.645 73.1317 130.792 75.0943C129.981 77.057 128.829 78.785 127.336 80.2783C125.843 81.7717 124.093 82.945 122.088 83.7983C120.083 84.6517 117.971 85.0783 115.752 85.0783ZM115.752 58.2623C112.893 58.2623 110.44 59.2863 108.392 61.3343C107.411 62.3157 106.643 63.4677 106.088 64.7903C105.533 66.113 105.256 67.4783 105.256 68.8863C105.256 70.2943 105.533 71.6383 106.088 72.9183C106.643 74.1983 107.411 75.329 108.392 76.3103C109.373 77.2917 110.483 78.0597 111.72 78.6143C113 79.169 114.344 79.4463 115.752 79.4463C117.16 79.4463 118.525 79.169 119.848 78.6143C121.171 78.0597 122.301 77.2917 123.24 76.3103C124.179 75.329 124.925 74.1983 125.48 72.9183C126.035 71.6383 126.312 70.2943 126.312 68.8863C126.312 67.4783 126.035 66.113 125.48 64.7903C124.925 63.4677 124.179 62.3157 123.24 61.3343C122.301 60.353 121.171 59.6063 119.848 59.0943C118.568 58.5397 117.203 58.2623 115.752 58.2623Z" fill="white"/>
<path d="M8.8322 75.9744V90.7584H3.2002V48.1984H15.1682C16.9602 48.1984 18.6882 48.561 20.3522 49.2864C22.0162 49.969 23.4882 50.9504 24.7682 52.2304C26.0482 53.553 27.0295 55.0677 27.7122 56.7744C28.4375 58.4384 28.8002 60.209 28.8002 62.0864C28.8002 63.9637 28.4375 65.7557 27.7122 67.4624C27.0295 69.1264 26.0482 70.5984 24.7682 71.8784C23.4882 73.1584 22.0162 74.161 20.3522 74.8864C18.6882 75.6117 16.9602 75.9744 15.1682 75.9744H8.8322ZM8.8322 54.0224V70.2784H15.1682C17.3869 70.2784 19.2642 69.4677 20.8002 67.8464C22.3789 66.2677 23.1682 64.3477 23.1682 62.0864C23.1682 59.8677 22.3789 57.969 20.8002 56.3904C19.2215 54.8117 17.3442 54.0224 15.1682 54.0224H8.8322Z" fill="white"/>
<path d="M77.6082 90.7584H70.0562L57.8322 76.2304V90.7584H52.2002V48.2624H63.1442C65.0215 48.2624 66.7709 48.625 68.3922 49.3504C70.0562 50.033 71.5069 51.0144 72.7442 52.2944C73.9815 53.617 74.9415 55.1317 75.6242 56.8384C76.3069 58.5024 76.6482 60.273 76.6482 62.1504C76.6482 63.9424 76.3495 65.6277 75.7522 67.2064C75.1549 68.785 74.3015 70.193 73.1922 71.4304C72.0829 72.6677 70.7815 73.6917 69.2882 74.5024C67.7949 75.2704 66.2375 75.7397 64.6162 75.9104L77.6082 90.7584ZM57.8322 54.0224V70.2784H63.1442C64.2109 70.2784 65.2349 70.065 66.2162 69.6384C67.1975 69.2117 68.0509 68.6357 68.7762 67.9104C69.5015 67.1424 70.0562 66.2677 70.4402 65.2864C70.8669 64.305 71.0802 63.2597 71.0802 62.1504C71.0802 59.9744 70.3122 58.0544 68.7762 56.3904C68.0509 55.665 67.1975 55.089 66.2162 54.6624C65.2349 54.2357 64.2109 54.0224 63.1442 54.0224H57.8322Z" fill="white"/>
<path d="M9.7042 104.958V117.63H21.6722V123.39H9.7042V141.758H4.2002V99.1984H27.4962V104.958H9.7042Z" fill="white"/>
<path d="M61.2002 141.758V99.1984H66.5762V141.758H61.2002Z" fill="white"/>
<path d="M118.496 104.638V141.758H112.864V104.638H102.56V99.1984H128.8V104.638H118.496Z" fill="white"/>
<path d="M140.2 142.758V100.198H163.496V105.958H145.768V118.886H157.672V124.134H145.768V136.998H163.496V142.758H140.2Z" fill="white"/>
<path d="M175.2 142.758V100.198H198.496V105.958H180.768V118.886H192.672V124.134H180.768V136.998H198.496V142.758H175.2Z" fill="white"/>
<path d="M235.608 142.758H228.056L215.832 128.23V142.758H210.2V100.262H221.144C223.022 100.262 224.771 100.625 226.392 101.35C228.056 102.033 229.507 103.014 230.744 104.294C231.982 105.617 232.942 107.132 233.624 108.838C234.307 110.502 234.648 112.273 234.648 114.15C234.648 115.942 234.35 117.628 233.752 119.206C233.155 120.785 232.302 122.193 231.192 123.43C230.083 124.668 228.782 125.692 227.288 126.502C225.795 127.27 224.238 127.74 222.616 127.91L235.608 142.758ZM215.832 106.022V122.278H221.144C222.211 122.278 223.235 122.065 224.216 121.638C225.198 121.212 226.051 120.636 226.776 119.91C227.502 119.142 228.056 118.268 228.44 117.286C228.867 116.305 229.08 115.26 229.08 114.15C229.08 111.974 228.312 110.054 226.776 108.39C226.051 107.665 225.198 107.089 224.216 106.662C223.235 106.236 222.211 106.022 221.144 106.022H215.832Z" fill="white"/>
<defs>
<linearGradient id="paint0_linear_327_25" x1="150.48" y1="-0.275557" x2="148.679" y2="70.0141" gradientUnits="userSpaceOnUse">
<stop stop-color="#008CFF"/>
<stop offset="1" stop-color="#DE8BFF"/>
</linearGradient>
<linearGradient id="paint1_linear_327_25" x1="91.6005" y1="148.298" x2="93.7028" y2="66.2378" gradientUnits="userSpaceOnUse">
<stop stop-color="#008CFF"/>
<stop offset="1" stop-color="#DE8BFF"/>
</linearGradient>
</defs>
</svg>
